<?xml version="1.0" encoding="UTF-8"?>
<svg version="1.1" xmlns="http://www.w3.org/2000/svg" width="512" height="512">
<path d="M0 0 C6.22290823 4.97580718 10.40449273 12.57105783 11.75 20.375 C13.34565666 37.67790188 4.50076524 49.56060252 -5.93334961 62.45532227 C-7.50507201 64.3235345 -7.50507201 64.3235345 -7.09375 66.8125 C-6.20472702 69.51249571 -5.09533962 71.87204258 -3.75 74.375 C0.71809116 82.68772775 0.98079633 91.86888876 -1.4375 100.9375 C-4.48172321 109.24479924 -10.16076324 116.02542886 -15.46240234 123.00195312 C-18.37574196 126.86942938 -21.18098945 130.81356638 -24 134.75 C-37.89756003 154.02256003 -37.89756003 154.02256003 -41.25 157.375 C-48.1773743 158.04539106 -48.1773743 158.04539106 -51.75 155.8125 C-53.86063385 152.38272 -53.68579055 150.37449828 -53.25 146.375 C-51.84529684 143.52130124 -49.99064707 141.08335061 -48.0625 138.5625 C-47.52584717 137.83256836 -46.98919434 137.10263672 -46.4362793 136.35058594 C-45.29863243 134.8042954 -44.15433705 133.26287733 -43.00390625 131.72607422 C-40.14398318 127.89240786 -37.35745118 124.00614074 -34.5625 120.125 C-34.02109375 119.37605469 -33.4796875 118.62710938 -32.921875 117.85546875 C-29.6110412 113.27494626 -26.30985033 108.68830917 -23.0625 104.0625 C-22.36769531 103.07636719 -21.67289062 102.09023437 -20.95703125 101.07421875 C-17.21404617 95.15567712 -16.57146582 90.36138829 -17.75 83.4375 C-17.915 82.756875 -18.08 82.07625 -18.25 81.375 C-22.36493947 85.22950027 -25.5077316 89.35732292 -28.6875 94 C-33.15445769 100.4278383 -37.71369069 106.77414788 -42.375 113.0625 C-50.26179282 123.70533878 -50.26179282 123.70533878 -57.89022827 134.53405762 C-59.25 136.375 -59.25 136.375 -61.20669556 138.56848145 C-67.79890935 146.41783086 -68.40041012 153.08648906 -68.25 163.0625 C-68.25811262 164.45770792 -68.26980882 165.85289978 -68.28515625 167.24804688 C-68.30852779 170.62523409 -68.29602594 173.99816648 -68.25 177.375 C-67.51021408 177.36611755 -66.77042816 177.35723511 -66.00822449 177.3480835 C-58.99210549 177.26750301 -51.97615026 177.20681698 -44.95969677 177.16775131 C-41.35354347 177.14699101 -37.74777665 177.11888949 -34.1418457 177.07324219 C-30.65344326 177.02936557 -27.16540946 177.00577631 -23.67675209 176.99549103 C-21.71660309 176.98464413 -19.75659974 176.95348681 -17.79667664 176.92181396 C-5.19872836 176.91869529 5.49887537 180.45412462 14.72265625 189.2578125 C23.22766859 198.46706154 26.07528794 208.49640167 25.99050903 220.84094238 C25.99307231 222.22326907 25.99307231 222.22326907 25.99568737 223.63352156 C25.99896704 226.70432925 25.98800369 229.77491574 25.97705078 232.84570312 C25.97648634 235.05375158 25.97680387 237.2618004 25.97793579 239.46984863 C25.97850901 245.45268817 25.96675957 251.43544732 25.95278788 257.4182682 C25.94027548 263.67495947 25.93910961 269.93165264 25.93673706 276.18835449 C25.93122949 286.68612971 25.91874165 297.1838801 25.90087891 307.68164062 C25.88250423 318.49153497 25.86835551 329.30142131 25.85986328 340.11132812 C25.85933783 340.77831335 25.85881239 341.44529857 25.85827102 342.13249546 C25.85566083 345.4787623 25.85313796 348.82502919 25.85064721 352.17129612 C25.8297487 379.90588457 25.79457567 407.64044021 25.75 435.375 C26.70261719 435.32859375 27.65523438 435.2821875 28.63671875 435.234375 C29.89097656 435.19828125 31.14523437 435.1621875 32.4375 435.125 C33.67886719 435.07859375 34.92023438 435.0321875 36.19921875 434.984375 C40.33140266 435.43896069 41.90510856 436.39719562 44.75 439.375 C45.38110352 442.50024414 45.38110352 442.50024414 45.37890625 446.16015625 C45.38131821 446.81648544 45.38373016 447.47281464 45.38621521 448.14903259 C45.38523747 449.53846267 45.37186037 450.92793204 45.34692383 452.31713867 C45.31298714 454.4074945 45.32616612 456.49352479 45.34570312 458.58398438 C45.33467243 471.13130774 42.92785752 480.12258481 34.109375 489.21484375 C23.96372514 498.5038245 13.08039403 499.9154857 -0.2355957 499.87597656 C-2.57559721 499.8749945 -4.91241533 499.91691986 -7.25195312 499.9609375 C-8.74738906 499.96613877 -10.24283628 499.96883279 -11.73828125 499.96875 C-12.43311111 499.98514526 -13.12794098 500.00154053 -13.84382629 500.01843262 C-17.59324267 499.96486746 -18.99459457 499.62447164 -21.71948242 496.96289062 C-23.25 494.375 -23.25 494.375 -23.25 492.375 C-31.83 492.375 -40.41 492.375 -49.25 492.375 C-49.91 494.025 -50.57 495.675 -51.25 497.375 C-54.01132998 500.13632998 -55.5925232 499.6275679 -59.46243954 499.63226891 C-60.10978716 499.63577498 -60.75713478 499.63928105 -61.424099 499.64289337 C-63.61435415 499.65226902 -65.80434699 499.64726835 -67.99461365 499.64242554 C-69.5724257 499.64615876 -71.1502359 499.65075895 -72.72804314 499.65615618 C-77.08051306 499.66844323 -81.43290645 499.66811902 -85.78538978 499.66576743 C-90.47341921 499.66536067 -95.16142363 499.67638518 -99.84944153 499.68588257 C-109.04243367 499.70252698 -118.23540017 499.70799375 -127.42840611 499.70910732 C-134.90204825 499.71005659 -142.37568191 499.7141608 -149.84932137 499.72050858 C-171.03139799 499.73813376 -192.21345431 499.74734596 -213.39553832 499.74584763 C-215.11001663 499.74572776 -215.11001663 499.74572776 -216.85913086 499.74560547 C-218.57570034 499.74548283 -218.57570034 499.74548283 -220.32694799 499.74535771 C-238.85895595 499.74454542 -257.39088251 499.76366534 -275.92286693 499.7918822 C-294.94448791 499.82061616 -313.96606921 499.83442207 -332.98771244 499.83269465 C-343.66946506 499.83203071 -354.35113245 499.83752403 -365.03286552 499.85905075 C-374.13185186 499.87726971 -383.23071439 499.88160433 -392.32971107 499.8680319 C-396.9710601 499.86150464 -401.61217168 499.8613761 -406.25349808 499.8787384 C-410.50702777 499.89448592 -414.76013208 499.8915884 -419.0136515 499.87417014 C-420.5480995 499.87110382 -422.08257938 499.87471874 -423.61698978 499.88589029 C-437.10898578 499.9775724 -447.64541406 497.54624346 -457.8125 488.25 C-466.64285116 479.18469493 -467.49923776 469.05611996 -467.60009766 457.04833984 C-467.61670109 455.59928374 -467.64404934 454.15031098 -467.68212891 452.70166016 C-467.73692419 450.60276241 -467.75876413 448.5057666 -467.7734375 446.40625 C-467.79325684 445.15392578 -467.81307617 443.90160156 -467.83349609 442.61132812 C-467.25 439.375 -467.25 439.375 -465.17431641 436.95117188 C-461.51543359 434.97907741 -459.06984413 434.97051985 -454.9375 435.125 C-453.68324219 435.16109375 -452.42898438 435.1971875 -451.13671875 435.234375 C-450.18410156 435.28078125 -449.23148437 435.3271875 -448.25 435.375 C-448.25666183 434.79506287 -448.26332367 434.21512573 -448.27018738 433.61761475 C-448.3365432 427.58318626 -448.38180159 421.54886137 -448.41479492 415.51416016 C-448.42988395 413.26183869 -448.45035755 411.00954661 -448.47631836 408.75732422 C-448.51269593 405.52043404 -448.5297253 402.28393225 -448.54296875 399.046875 C-448.56619453 397.53574127 -448.56619453 397.53574127 -448.58988953 395.99407959 C-448.59011612 395.05340637 -448.59034271 394.11273315 -448.59057617 393.14355469 C-448.59723801 392.31748718 -448.60389984 391.49141968 -448.61076355 390.64031982 C-448.15872141 387.80184009 -447.21122058 386.45186753 -445.25 384.375 C-444.26 384.045 -443.27 383.715 -442.25 383.375 C-442.10507281 379.43788563 -442.01605463 375.50145375 -441.9375 371.5625 C-441.89560547 370.44294922 -441.85371094 369.32339844 -441.81054688 368.16992188 C-441.79443359 367.09677734 -441.77832031 366.02363281 -441.76171875 364.91796875 C-441.73553467 363.92821045 -441.70935059 362.93845215 -441.68237305 361.91870117 C-442.00295129 359.13402888 -442.00295129 359.13402888 -444.71801758 357.65356445 C-445.97134888 357.02067505 -445.97134888 357.02067505 -447.25 356.375 C-448.57335292 353.72829416 -448.38195841 351.73808324 -448.39044189 348.77294922 C-448.39900711 346.98566658 -448.39900711 346.98566658 -448.40774536 345.16227722 C-448.40886322 343.84802261 -448.40998108 342.53376801 -448.41113281 341.1796875 C-448.41576042 339.78676725 -448.420785 338.39384828 -448.42617798 337.00093079 C-448.43931641 333.20917688 -448.44575066 329.41744069 -448.45018864 325.62566757 C-448.45311926 323.25464388 -448.45722422 320.88362502 -448.46169281 318.51260376 C-448.47537643 311.08874439 -448.48503677 303.66489608 -448.4888947 296.24102497 C-448.49336671 287.6827986 -448.51087093 279.12473264 -448.5398953 270.56655502 C-448.5615634 263.94645235 -448.57160184 257.3263946 -448.57293582 250.70625687 C-448.57398091 246.75550422 -448.57982443 242.80490218 -448.59775543 238.85418701 C-448.61432324 235.13101068 -448.61634979 231.40809669 -448.60761642 227.68489647 C-448.6064876 225.68056189 -448.62014071 223.67623569 -448.6343689 221.67195129 C-448.57698209 209.16157647 -445.7557049 198.61624269 -437.24609375 189.14453125 C-429.52556893 181.78310061 -420.18444122 177.238186 -409.47167969 177.26147461 C-408.3107782 177.26155014 -407.14987671 177.26162567 -405.95379639 177.26170349 C-404.70576233 177.26686478 -403.45772827 177.27202606 -402.171875 177.27734375 C-400.24930878 177.27946617 -400.24930878 177.27946617 -398.28790283 177.28163147 C-394.8881636 177.28544099 -391.4884674 177.29525786 -388.08874512 177.30633545 C-384.616461 177.31658326 -381.1441699 177.3211363 -377.671875 177.32617188 C-370.86456571 177.33688159 -364.05728492 177.35393916 -357.25 177.375 C-357.26571045 176.4684668 -357.2814209 175.56193359 -357.29760742 174.62792969 C-357.34928972 171.20599439 -357.38661492 167.78448459 -357.41479492 164.36230469 C-357.42971429 162.89218527 -357.45005727 161.422109 -357.47631836 159.95214844 C-357.78765991 142.05306185 -354.27557359 126.83393083 -341.53125 113.55859375 C-331.07923032 103.55400642 -318.36631634 97.96535584 -303.83840942 98.19073486 C-302.62592476 98.19686314 -302.62592476 98.19686314 -301.38894546 98.20311522 C-298.70071045 98.2187974 -296.01282172 98.24870643 -293.32470703 98.27832031 C-291.38904528 98.29195197 -289.45337558 98.30449167 -287.5177002 98.31602478 C-283.35876173 98.34174734 -279.19989986 98.37246672 -275.04101944 98.40625763 C-268.4594892 98.45694603 -261.87805282 98.47952119 -255.2963562 98.49505615 C-254.18397524 98.49777346 -253.07159428 98.50049077 -251.9255048 98.50329041 C-249.65144498 98.5087231 -247.37738493 98.51405828 -245.10332465 98.51929808 C-229.78829953 98.55500378 -214.47411729 98.60606299 -199.15966797 98.74853516 C-188.81758234 98.84454398 -178.47659076 98.89092896 -168.13404739 98.87993121 C-162.66546669 98.87606274 -157.19959492 98.89736346 -151.7315712 98.97928619 C-146.58725481 99.05592437 -141.44691833 99.0668846 -136.30221558 99.02832222 C-134.4195903 99.02575693 -132.53675186 99.04698855 -130.65472031 99.09433556 C-121.05813111 99.6072281 -121.05813111 99.6072281 -112.52321577 95.9975462 C-109.01664 92.20516173 -106.66380221 87.91127178 -104.25 83.375 C-103.1576848 81.79738914 -102.04409627 80.23364315 -100.88671875 78.703125 C-100.39945312 78.02894531 -99.9121875 77.35476562 -99.41015625 76.66015625 C-98.68119141 75.65275391 -98.68119141 75.65275391 -97.9375 74.625 C-96.82681261 73.08854911 -95.71613584 71.55209056 -94.60546875 70.015625 C-94.05036621 69.24798828 -93.49526367 68.48035156 -92.92333984 67.68945312 C-90.19736861 63.91906981 -87.47378466 60.14696306 -84.75 56.375 C-83.66667856 54.87499141 -82.58334521 53.37499142 -81.5 51.875 C-80.96375 51.1325 -80.4275 50.39 -79.875 49.625 C-78.25 47.375 -76.625 45.125 -75 42.875 C-74.46334717 42.13185547 -73.92669434 41.38871094 -73.3737793 40.62304688 C-72.29484799 39.12931669 -71.21558584 37.63582543 -70.13598633 36.14257812 C-67.35748338 32.29858372 -64.58557405 28.45008497 -61.82421875 24.59375 C-58.65489548 20.17122727 -55.46003639 15.76803348 -52.25 11.375 C-51.12271484 9.82039063 -51.12271484 9.82039063 -49.97265625 8.234375 C-37.38240345 -8.41966237 -17.45133734 -11.59032216 0 0 Z " fill="#8F9DBF" transform="translate(467.25,9.625)"/>
<path d="M0 0 C6.22290823 4.97580718 10.40449273 12.57105783 11.75 20.375 C13.34565666 37.67790188 4.50076524 49.56060252 -5.93334961 62.45532227 C-7.50507201 64.3235345 -7.50507201 64.3235345 -7.09375 66.8125 C-6.20472702 69.51249571 -5.09533962 71.87204258 -3.75 74.375 C0.71809116 82.68772775 0.98079633 91.86888876 -1.4375 100.9375 C-4.48172321 109.24479924 -10.16076324 116.02542886 -15.46240234 123.00195312 C-18.37574196 126.86942938 -21.18098945 130.81356638 -24 134.75 C-37.89756003 154.02256003 -37.89756003 154.02256003 -41.25 157.375 C-48.1773743 158.04539106 -48.1773743 158.04539106 -51.75 155.8125 C-53.86063385 152.38272 -53.68579055 150.37449828 -53.25 146.375 C-51.84529684 143.52130124 -49.99064707 141.08335061 -48.0625 138.5625 C-47.52584717 137.83256836 -46.98919434 137.10263672 -46.4362793 136.35058594 C-45.29863243 134.8042954 -44.15433705 133.26287733 -43.00390625 131.72607422 C-40.14398318 127.89240786 -37.35745118 124.00614074 -34.5625 120.125 C-34.02109375 119.37605469 -33.4796875 118.62710938 -32.921875 117.85546875 C-29.6110412 113.27494626 -26.30985033 108.68830917 -23.0625 104.0625 C-22.36769531 103.07636719 -21.67289062 102.09023437 -20.95703125 101.07421875 C-17.21404617 95.15567712 -16.57146582 90.36138829 -17.75 83.4375 C-17.915 82.756875 -18.08 82.07625 -18.25 81.375 C-22.36493947 85.22950027 -25.5077316 89.35732292 -28.6875 94 C-33.15445769 100.4278383 -37.71369069 106.77414788 -42.375 113.0625 C-50.26179282 123.70533878 -50.26179282 123.70533878 -57.89022827 134.53405762 C-59.25 136.375 -59.25 136.375 -61.20669556 138.56848145 C-67.79890935 146.41783086 -68.40041012 153.08648906 -68.25 163.0625 C-68.25811262 164.45770792 -68.26980882 165.85289978 -68.28515625 167.24804688 C-68.30852779 170.62523409 -68.29602594 173.99816648 -68.25 177.375 C-67.51021408 177.36611755 -66.77042816 177.35723511 -66.00822449 177.3480835 C-58.99210549 177.26750301 -51.97615026 177.20681698 -44.95969677 177.16775131 C-41.35354347 177.14699101 -37.74777665 177.11888949 -34.1418457 177.07324219 C-30.65344326 177.02936557 -27.16540946 177.00577631 -23.67675209 176.99549103 C-21.71660309 176.98464413 -19.75659974 176.95348681 -17.79667664 176.92181396 C-5.19872836 176.91869529 5.49887537 180.45412462 14.72265625 189.2578125 C23.22766859 198.46706154 26.07528794 208.49640167 25.99050903 220.84094238 C25.99307231 222.22326907 25.99307231 222.22326907 25.99568737 223.63352156 C25.99896704 226.70432925 25.98800369 229.77491574 25.97705078 232.84570312 C25.97648634 235.05375158 25.97680387 237.2618004 25.97793579 239.46984863 C25.97850901 245.45268817 25.96675957 251.43544732 25.95278788 257.4182682 C25.94027548 263.67495947 25.93910961 269.93165264 25.93673706 276.18835449 C25.93122949 286.68612971 25.91874165 297.1838801 25.90087891 307.68164062 C25.88250423 318.49153497 25.86835551 329.30142131 25.85986328 340.11132812 C25.85933783 340.77831335 25.85881239 341.44529857 25.85827102 342.13249546 C25.85566083 345.4787623 25.85313796 348.82502919 25.85064721 352.17129612 C25.8297487 379.90588457 25.79457567 407.64044021 25.75 435.375 C26.70261719 435.32859375 27.65523438 435.2821875 28.63671875 435.234375 C29.89097656 435.19828125 31.14523437 435.1621875 32.4375 435.125 C33.67886719 435.07859375 34.92023438 435.0321875 36.19921875 434.984375 C40.33140266 435.43896069 41.90510856 436.39719562 44.75 439.375 C45.38110352 442.50024414 45.38110352 442.50024414 45.37890625 446.16015625 C45.38131821 446.81648544 45.38373016 447.47281464 45.38621521 448.14903259 C45.38523747 449.53846267 45.37186037 450.92793204 45.34692383 452.31713867 C45.31298714 454.4074945 45.32616612 456.49352479 45.34570312 458.58398438 C45.33467243 471.13130774 42.92785752 480.12258481 34.109375 489.21484375 C23.96372514 498.5038245 13.08039403 499.9154857 -0.2355957 499.87597656 C-2.57559721 499.8749945 -4.91241533 499.91691986 -7.25195312 499.9609375 C-8.74738906 499.96613877 -10.24283628 499.96883279 -11.73828125 499.96875 C-12.43311111 499.98514526 -13.12794098 500.00154053 -13.84382629 500.01843262 C-17.59324267 499.96486746 -18.99459457 499.62447164 -21.71948242 496.96289062 C-23.25 494.375 -23.25 494.375 -23.25 492.375 C-31.83 492.375 -40.41 492.375 -49.25 492.375 C-49.91 494.025 -50.57 495.675 -51.25 497.375 C-54.01132998 500.13632998 -55.5925232 499.6275679 -59.46243954 499.63226891 C-60.10978716 499.63577498 -60.75713478 499.63928105 -61.424099 499.64289337 C-63.61435415 499.65226902 -65.80434699 499.64726835 -67.99461365 499.64242554 C-69.5724257 499.64615876 -71.1502359 499.65075895 -72.72804314 499.65615618 C-77.08051306 499.66844323 -81.43290645 499.66811902 -85.78538978 499.66576743 C-90.47341921 499.66536067 -95.16142363 499.67638518 -99.84944153 499.68588257 C-109.04243367 499.70252698 -118.23540017 499.70799375 -127.42840611 499.70910732 C-134.90204825 499.71005659 -142.37568191 499.7141608 -149.84932137 499.72050858 C-171.03139799 499.73813376 -192.21345431 499.74734596 -213.39553832 499.74584763 C-215.11001663 499.74572776 -215.11001663 499.74572776 -216.85913086 499.74560547 C-218.57570034 499.74548283 -218.57570034 499.74548283 -220.32694799 499.74535771 C-238.85895595 499.74454542 -257.39088251 499.76366534 -275.92286693 499.7918822 C-294.94448791 499.82061616 -313.96606921 499.83442207 -332.98771244 499.83269465 C-343.66946506 499.83203071 -354.35113245 499.83752403 -365.03286552 499.85905075 C-374.13185186 499.87726971 -383.23071439 499.88160433 -392.32971107 499.8680319 C-396.9710601 499.86150464 -401.61217168 499.8613761 -406.25349808 499.8787384 C-410.50702777 499.89448592 -414.76013208 499.8915884 -419.0136515 499.87417014 C-420.5480995 499.87110382 -422.08257938 499.87471874 -423.61698978 499.88589029 C-437.10898578 499.9775724 -447.64541406 497.54624346 -457.8125 488.25 C-466.64285116 479.18469493 -467.49923776 469.05611996 -467.60009766 457.04833984 C-467.61670109 455.59928374 -467.64404934 454.15031098 -467.68212891 452.70166016 C-467.73692419 450.60276241 -467.75876413 448.5057666 -467.7734375 446.40625 C-467.79325684 445.15392578 -467.81307617 443.90160156 -467.83349609 442.61132812 C-467.25 439.375 -467.25 439.375 -465.17431641 436.95117188 C-461.51543359 434.97907741 -459.06984413 434.97051985 -454.9375 435.125 C-453.68324219 435.16109375 -452.42898438 435.1971875 -451.13671875 435.234375 C-450.18410156 435.28078125 -449.23148437 435.3271875 -448.25 435.375 C-448.25666183 434.79506287 -448.26332367 434.21512573 -448.27018738 433.61761475 C-448.3365432 427.58318626 -448.38180159 421.54886137 -448.41479492 415.51416016 C-448.42988395 413.26183869 -448.45035755 411.00954661 -448.47631836 408.75732422 C-448.51269593 405.52043404 -448.5297253 402.28393225 -448.54296875 399.046875 C-448.56619453 397.53574127 -448.56619453 397.53574127 -448.58988953 395.99407959 C-448.59011612 395.05340637 -448.59034271 394.11273315 -448.59057617 393.14355469 C-448.59723801 392.31748718 -448.60389984 391.49141968 -448.61076355 390.64031982 C-448.15872141 387.80184009 -447.21122058 386.45186753 -445.25 384.375 C-444.26 384.045 -443.27 383.715 -442.25 383.375 C-442.10507281 379.43788563 -442.01605463 375.50145375 -441.9375 371.5625 C-441.89560547 370.44294922 -441.85371094 369.32339844 -441.81054688 368.16992188 C-441.79443359 367.09677734 -441.77832031 366.02363281 -441.76171875 364.91796875 C-441.73553467 363.92821045 -441.70935059 362.93845215 -441.68237305 361.91870117 C-442.00295129 359.13402888 -442.00295129 359.13402888 -444.71801758 357.65356445 C-445.97134888 357.02067505 -445.97134888 357.02067505 -447.25 356.375 C-448.57335292 353.72829416 -448.38195841 351.73808324 -448.39044189 348.77294922 C-448.39900711 346.98566658 -448.39900711 346.98566658 -448.40774536 345.16227722 C-448.40886322 343.84802261 -448.40998108 342.53376801 -448.41113281 341.1796875 C-448.41576042 339.78676725 -448.420785 338.39384828 -448.42617798 337.00093079 C-448.43931641 333.20917688 -448.44575066 329.41744069 -448.45018864 325.62566757 C-448.45311926 323.25464388 -448.45722422 320.88362502 -448.46169281 318.51260376 C-448.47537643 311.08874439 -448.48503677 303.66489608 -448.4888947 296.24102497 C-448.49336671 287.6827986 -448.51087093 279.12473264 -448.5398953 270.56655502 C-448.5615634 263.94645235 -448.57160184 257.3263946 -448.57293582 250.70625687 C-448.57398091 246.75550422 -448.57982443 242.80490218 -448.59775543 238.85418701 C-448.61432324 235.13101068 -448.61634979 231.40809669 -448.60761642 227.68489647 C-448.6064876 225.68056189 -448.62014071 223.67623569 -448.6343689 221.67195129 C-448.57698209 209.16157647 -445.7557049 198.61624269 -437.24609375 189.14453125 C-429.52556893 181.78310061 -420.18444122 177.238186 -409.47167969 177.26147461 C-408.3107782 177.26155014 -407.14987671 177.26162567 -405.95379639 177.26170349 C-404.70576233 177.26686478 -403.45772827 177.27202606 -402.171875 177.27734375 C-400.24930878 177.27946617 -400.24930878 177.27946617 -398.28790283 177.28163147 C-394.8881636 177.28544099 -391.4884674 177.29525786 -388.08874512 177.30633545 C-384.616461 177.31658326 -381.1441699 177.3211363 -377.671875 177.32617188 C-370.86456571 177.33688159 -364.05728492 177.35393916 -357.25 177.375 C-357.26571045 176.4684668 -357.2814209 175.56193359 -357.29760742 174.62792969 C-357.34928972 171.20599439 -357.38661492 167.78448459 -357.41479492 164.36230469 C-357.42971429 162.89218527 -357.45005727 161.422109 -357.47631836 159.95214844 C-357.78765991 142.05306185 -354.27557359 126.83393083 -341.53125 113.55859375 C-331.07923032 103.55400642 -318.36631634 97.96535584 -303.83840942 98.19073486 C-302.62592476 98.19686314 -302.62592476 98.19686314 -301.38894546 98.20311522 C-298.70071045 98.2187974 -296.01282172 98.24870643 -293.32470703 98.27832031 C-291.38904528 98.29195197 -289.45337558 98.30449167 -287.5177002 98.31602478 C-283.35876173 98.34174734 -279.19989986 98.37246672 -275.04101944 98.40625763 C-268.4594892 98.45694603 -261.87805282 98.47952119 -255.2963562 98.49505615 C-254.18397524 98.49777346 -253.07159428 98.50049077 -251.9255048 98.50329041 C-249.65144498 98.5087231 -247.37738493 98.51405828 -245.10332465 98.51929808 C-229.78829953 98.55500378 -214.47411729 98.60606299 -199.15966797 98.74853516 C-188.81758234 98.84454398 -178.47659076 98.89092896 -168.13404739 98.87993121 C-162.66546669 98.87606274 -157.19959492 98.89736346 -151.7315712 98.97928619 C-146.58725481 99.05592437 -141.44691833 99.0668846 -136.30221558 99.02832222 C-134.4195903 99.02575693 -132.53675186 99.04698855 -130.65472031 99.09433556 C-121.05813111 99.6072281 -121.05813111 99.6072281 -112.52321577 95.9975462 C-109.01664 92.20516173 -106.66380221 87.91127178 -104.25 83.375 C-103.1576848 81.79738914 -102.04409627 80.23364315 -100.88671875 78.703125 C-100.39945312 78.02894531 -99.9121875 77.35476562 -99.41015625 76.66015625 C-98.68119141 75.65275391 -98.68119141 75.65275391 -97.9375 74.625 C-96.82681261 73.08854911 -95.71613584 71.55209056 -94.60546875 70.015625 C-94.05036621 69.24798828 -93.49526367 68.48035156 -92.92333984 67.68945312 C-90.19736861 63.91906981 -87.47378466 60.14696306 -84.75 56.375 C-83.66667856 54.87499141 -82.58334521 53.37499142 -81.5 51.875 C-80.96375 51.1325 -80.4275 50.39 -79.875 49.625 C-78.25 47.375 -76.625 45.125 -75 42.875 C-74.46334717 42.13185547 -73.92669434 41.38871094 -73.3737793 40.62304688 C-72.29484799 39.12931669 -71.21558584 37.63582543 -70.13598633 36.14257812 C-67.35748338 32.29858372 -64.58557405 28.45008497 -61.82421875 24.59375 C-58.65489548 20.17122727 -55.46003639 15.76803348 -52.25 11.375 C-51.12271484 9.82039063 -51.12271484 9.82039063 -49.97265625 8.234375 C-37.38240345 -8.41966237 -17.45133734 -11.59032216 0 0 Z M-330.25 124.375 C-331.09498047 125.17744141 -331.09498047 125.17744141 -331.95703125 125.99609375 C-339.84663785 134.32512148 -341.99723615 143.87796024 -341.88110352 155.03149414 C-341.88825882 156.2459874 -341.89541412 157.46048065 -341.90278625 158.71177673 C-341.91669586 162.00957688 -341.9084715 165.30634183 -341.88869596 168.6040833 C-341.87217099 172.07472197 -341.88114124 175.54531433 -341.88621521 179.01597595 C-341.89072027 184.84029052 -341.87496422 190.66428227 -341.84692383 196.48852539 C-341.81486375 203.19895976 -341.81489854 209.9088128 -341.8321386 216.6192885 C-341.84806248 223.10613847 -341.84123366 229.59277758 -341.82420158 236.07961845 C-341.81737249 238.82621391 -341.81832039 241.57263823 -341.82574654 244.31923103 C-341.83122105 248.16248226 -341.81074975 252.00476019 -341.78344727 255.84790039 C-341.78997314 256.97285919 -341.79649902 258.09781799 -341.80322266 259.25686646 C-341.6687647 270.43698984 -338.08059611 279.335588 -330.25 287.375 C-321.97255676 294.32913258 -314.65176614 297.67976035 -303.86328125 297.7734375 C-299.9580453 298.67240063 -298.67947533 300.18942771 -296.25 303.375 C-295.50102116 306.88761823 -295.52860188 310.34419863 -295.54296875 313.92578125 C-295.52784744 314.93972458 -295.51272614 315.95366791 -295.49714661 316.99833679 C-295.45425117 320.22828376 -295.44542953 323.45729649 -295.4375 326.6875 C-295.41435723 328.88088424 -295.38899236 331.07424625 -295.36132812 333.26757812 C-295.29845789 338.63672759 -295.26353817 344.00551171 -295.25 349.375 C-291.55739917 347.82810503 -289.22502183 345.58615919 -286.42138672 342.75756836 C-285.95584381 342.29071121 -285.4903009 341.82385406 -285.01065063 341.34284973 C-283.4790053 339.8047339 -281.95446079 338.25976955 -280.4296875 336.71484375 C-279.36453451 335.64341807 -278.29886321 334.57250743 -277.23269653 333.50209045 C-274.4311687 330.68727654 -271.63526716 327.86694562 -268.84094238 325.04498291 C-264.36246871 320.52333977 -259.87721547 316.00844588 -255.38873672 311.49673653 C-253.82087442 309.91863637 -252.25646017 308.33717609 -250.69235229 306.75535583 C-249.73495792 305.79113541 -248.77745452 304.82702322 -247.81982422 303.86303711 C-246.98361542 303.01857529 -246.14740662 302.17411346 -245.28585815 301.30406189 C-241.62049754 297.83097735 -238.36755975 298.22100286 -233.55908203 298.21386719 C-232.76542236 298.20890228 -231.9717627 298.20393738 -231.15405273 298.19882202 C-228.52196392 298.18418714 -225.88993536 298.17739628 -223.2578125 298.171875 C-221.43179319 298.16612473 -219.6057739 298.16036698 -217.77975464 298.15460205 C-213.94805621 298.14408835 -210.11637879 298.13824807 -206.28466797 298.13476562 C-201.37276344 298.12927951 -196.46113593 298.10525057 -191.54931831 298.07679367 C-187.77638943 298.05817804 -184.00352742 298.05296227 -180.23055649 298.05142975 C-178.41964071 298.04840035 -176.60872618 298.04036218 -174.79785538 298.02724457 C-172.26492434 298.01020605 -169.73267199 298.01205876 -167.19970703 298.01855469 C-166.45046967 298.0093399 -165.7012323 298.00012512 -164.92929077 297.9906311 C-161.80449531 298.01575851 -159.56636053 298.20800968 -156.78048706 299.67852783 C-155.25 301.375 -155.25 301.375 -154.8125 304.875 C-155.25 308.375 -155.25 308.375 -156.37004089 310.1282196 C-159.26659923 312.04920402 -161.37759632 311.32363481 -164.7668457 310.82348633 C-166.14359262 310.64071322 -167.52078305 310.46125911 -168.89833069 310.28462219 C-169.63301134 310.18767878 -170.36769199 310.09073536 -171.1246357 309.99085426 C-196.85921928 306.81675385 -226.72107255 303.5222745 -248.32633114 320.29671383 C-265.84990832 334.71780591 -280.97014944 352.50604501 -294.93355274 370.32703876 C-298.04708777 374.27354388 -298.04708777 374.27354388 -300.25 375.375 C-305.59205732 375.82964318 -305.59205732 375.82964318 -307.91438293 374.22489929 C-309.79512427 371.61997446 -309.64886246 369.72352147 -309.68237305 366.52661133 C-309.70216721 365.3255928 -309.72196136 364.12457428 -309.74235535 362.88716125 C-309.74874527 361.59021835 -309.75513519 360.29327545 -309.76171875 358.95703125 C-309.77856459 357.61608734 -309.79671471 356.27515924 -309.81611633 354.93424988 C-309.86363358 351.40797869 -309.89343133 347.88177156 -309.91955566 344.35528564 C-309.9493528 340.7556086 -309.99588594 337.15615232 -310.04101562 333.55664062 C-310.12706793 326.49622007 -310.19440444 319.43573136 -310.25 312.375 C-311.34473633 312.06578613 -312.43947266 311.75657227 -313.56738281 311.43798828 C-327.9378251 307.28995688 -340.04657643 300.16374329 -348.25 287.375 C-353.41487661 277.69931412 -355.37349398 270.08603118 -355.56640625 259.26171875 C-355.58505737 258.40179321 -355.6037085 257.54186768 -355.6229248 256.65588379 C-355.69097885 253.45818898 -355.75128267 250.260333 -355.8125 247.0625 C-355.956875 239.905625 -356.10125 232.74875 -356.25 225.375 C-371.76 225.375 -387.27 225.375 -403.25 225.375 C-403.25 295.005 -403.25 364.635 -403.25 436.375 C-276.53 436.375 -149.81 436.375 -19.25 436.375 C-19.25 366.745 -19.25 297.115 -19.25 225.375 C-35.75 225.375 -52.25 225.375 -69.25 225.375 C-69.38066093 239.59884313 -69.38066093 239.59884313 -69.45776367 253.82299805 C-69.63986937 270.38342229 -72.82225568 283.91183867 -84.27734375 296.625 C-95.34826821 307.19543059 -108.72177706 311.33200938 -123.640625 311.703125 C-124.93226563 311.54070312 -124.93226563 311.54070312 -126.25 311.375 C-128.71324069 307.68013897 -128.63991688 305.74206908 -128.25 301.375 C-127.1328125 299.70703125 -127.1328125 299.70703125 -125.25 298.375 C-122.31640625 297.85546875 -122.31640625 297.85546875 -118.8125 297.5625 C-109.0874786 296.35567211 -100.15112261 292.44043505 -93.25 285.375 C-86.62563032 276.86963646 -83.7794235 269.16896527 -83.90942383 258.47070312 C-83.90876671 257.03517593 -83.90876671 257.03517593 -83.90809631 255.57064819 C-83.91017313 252.43230218 -83.93345192 249.29450178 -83.95703125 246.15625 C-83.96263114 243.97050264 -83.96689938 241.7847515 -83.96989441 239.59899902 C-83.98131219 233.86476118 -84.01075305 228.1307537 -84.04400635 222.39660645 C-84.07477338 216.53787349 -84.08841391 210.67910307 -84.10351562 204.8203125 C-84.13562563 193.33844082 -84.18678488 181.85673962 -84.25 170.375 C-87.09744777 173.19432987 -89.80242554 175.89841265 -92.125 179.16796875 C-92.62878174 179.87171631 -93.13256348 180.57546387 -93.65161133 181.30053711 C-94.44281372 182.42020874 -94.44281372 182.42020874 -95.25 183.5625 C-96.39961642 185.17196298 -97.54935972 186.78133534 -98.69921875 188.390625 C-99.28493652 189.21369141 -99.8706543 190.03675781 -100.47412109 190.88476562 C-102.21050312 193.31961532 -103.95633678 195.74730012 -105.70703125 198.171875 C-106.5427063 199.33009766 -106.5427063 199.33009766 -107.39526367 200.51171875 C-108.50372089 202.04138647 -109.61714954 203.56746439 -110.7355957 205.08984375 C-113.04256155 208.24061747 -115.22627588 211.33473517 -117.2109375 214.703125 C-122.41336934 223.3189171 -129.23866546 225.48488145 -138.40722656 228.43896484 C-141.62586066 229.498759 -144.80688938 230.6447323 -147.9921875 231.80078125 C-150.32761855 232.6394325 -152.66355429 233.47667971 -155 234.3125 C-156.11874512 234.71484863 -157.23749023 235.11719727 -158.39013672 235.53173828 C-159.45248535 235.90153809 -160.51483398 236.27133789 -161.609375 236.65234375 C-162.55264648 236.98484131 -163.49591797 237.31733887 -164.46777344 237.65991211 C-167.57424984 238.4583387 -170.05698155 238.70744569 -173.25 238.375 C-175.39185968 236.7812999 -176.15548981 235.87249204 -176.65786743 233.22802734 C-176.67954483 231.98206787 -176.67954483 231.98206787 -176.70166016 230.7109375 C-176.7240274 229.76565186 -176.74639465 228.82036621 -176.7694397 227.84643555 C-176.77591522 226.82461182 -176.78239075 225.80278809 -176.7890625 224.75 C-176.80141937 223.69272705 -176.81377625 222.6354541 -176.82650757 221.54614258 C-176.84609673 219.30344177 -176.85730992 217.06065467 -176.86083984 214.81787109 C-176.87483615 211.41483874 -176.94204231 208.01556685 -177.01171875 204.61328125 C-177.22247431 184.0138977 -177.22247431 184.0138977 -169.25 175.375 C-168.25200226 174.02333364 -167.26552537 172.66305454 -166.29296875 171.29296875 C-165.34478132 170.04670481 -164.39291724 168.80323007 -163.4375 167.5625 C-162.38675571 166.17934559 -161.33729697 164.79521372 -160.2890625 163.41015625 C-159.51804199 162.39139404 -159.51804199 162.39139404 -158.73144531 161.35205078 C-156.54506535 158.4342352 -154.42236313 155.47342096 -152.3125 152.5 C-151.71840332 151.66335815 -151.71840332 151.66335815 -151.11230469 150.80981445 C-150.27955914 149.63692642 -149.44687881 148.46399208 -148.61425781 147.29101562 C-145.98638545 143.60033161 -143.33766159 139.92469676 -140.6875 136.25 C-139.86451416 135.10748779 -139.86451416 135.10748779 -139.02490234 133.94189453 C-135.02853552 128.41002495 -130.93737116 122.96011174 -126.76171875 117.5625 C-125.06049258 115.54394933 -125.06049258 115.54394933 -125.25 113.375 C-148.88567761 113.28140731 -172.5213273 113.21094768 -196.15715313 113.16775131 C-207.13258256 113.14715812 -218.1078966 113.11909967 -229.08325195 113.07324219 C-238.65344171 113.03327499 -248.22354787 113.00754363 -257.79381877 112.99864602 C-262.85753631 112.99344799 -267.92101475 112.98129867 -272.98465538 112.95207977 C-277.7592372 112.92475432 -282.53348339 112.91658936 -287.30813599 112.92256927 C-289.05231874 112.92147665 -290.79651374 112.91362545 -292.54062843 112.8981781 C-306.83068427 112.77791423 -319.42211059 114.03030241 -330.25 124.375 Z " fill="#020202" transform="translate(467.25,9.625)"/>
<path d="M0 0 C1.80455511 0.00084757 3.60911126 0.00036861 5.41366577 -0.00132751 C10.28278585 -0.00218384 15.15168159 0.01538286 20.02074981 0.03639436 C25.1202922 0.05522195 30.21984044 0.05691638 35.31941223 0.06047058 C44.96286308 0.06977323 54.60621119 0.09436283 64.24961692 0.12451905 C75.23392905 0.1581186 86.21824624 0.17456301 97.20259702 0.18960536 C119.78591903 0.22091403 142.36915003 0.27363976 164.95239258 0.34057617 C163.1920453 3.99025537 161.01503819 7.19421082 158.63989258 10.46557617 C157.98500854 11.37484863 157.98500854 11.37484863 157.31689453 12.30249023 C155.86480384 14.31718035 154.40859975 16.32885992 152.95239258 18.34057617 C151.92088722 19.77007945 150.88964242 21.19977076 149.85864258 22.62963867 C145.46409979 28.7215837 141.06270192 34.80855216 136.65551758 40.89135742 C131.13483457 48.51551033 125.63967892 56.15665322 120.20239258 63.84057617 C119.68862061 64.56510986 119.17484863 65.28964355 118.64550781 66.03613281 C114.70868723 71.55764161 114.70868723 71.55764161 113.79125977 78.01806641 C113.78165222 78.98924911 113.77204468 79.96043182 113.762146 80.96104431 C113.75789612 82.01312576 113.75364624 83.06520721 113.74926758 84.14916992 C113.7435675 85.22683121 113.73786743 86.30449249 113.73199463 87.41481018 C113.72253734 89.69710302 113.71600777 91.97940956 113.7121582 94.26171875 C113.70244208 97.76025057 113.67142074 101.25819769 113.63989258 104.7565918 C113.63336379 106.97078101 113.62811283 109.18497443 113.62426758 111.39916992 C113.60574738 112.97425575 113.60574738 112.97425575 113.58685303 114.5811615 C113.59135468 116.0426638 113.59135468 116.0426638 113.59594727 117.53369141 C113.59230164 118.3914769 113.58865601 119.24926239 113.5848999 120.13304138 C113.79895286 122.39783136 113.79895286 122.39783136 115.21777344 124.14888 C118.03339805 126.08323492 120.23359228 125.33882385 123.48181152 124.85217285 C127.51052909 124.01792436 131.32119929 122.75097153 135.18676758 121.35620117 C136.02782043 121.05872986 136.86887329 120.76125854 137.7354126 120.45477295 C139.49848731 119.8276225 141.25976924 119.19541085 143.01928711 118.55834961 C145.70323103 117.59027375 148.39542015 116.64832433 151.08911133 115.70776367 C152.80972228 115.0921359 154.52979442 114.47499971 156.24926758 113.85620117 C157.04830505 113.57891174 157.84734253 113.30162231 158.67059326 113.01593018 C165.07875616 110.65622146 168.87296133 107.11437612 172.82739258 101.54760742 C173.33109375 100.84394043 173.83479492 100.14027344 174.35375977 99.4152832 C174.88130859 98.66875488 175.40885742 97.92222656 175.95239258 97.15307617 C177.10334616 95.54233614 178.25439046 93.93166094 179.40551758 92.32104492 C180.28433594 91.08620361 180.28433594 91.08620361 181.1809082 89.82641602 C187.77810626 80.56888148 194.42118296 71.33943589 201.20239258 62.21557617 C201.90879883 61.26424805 202.61520508 60.31291992 203.34301758 59.33276367 C204.1396582 58.34663086 204.1396582 58.34663086 204.95239258 57.34057617 C205.28239258 57.34057617 205.61239258 57.34057617 205.95239258 57.34057617 C206.04526493 69.94541857 206.11624515 82.55017894 206.15964127 95.15529442 C206.18047418 101.00900779 206.20871352 106.86248625 206.25415039 112.71606445 C206.29776102 118.37005533 206.32156198 124.02382091 206.33190155 129.67796707 C206.33926561 131.83003915 206.35364571 133.98209956 206.37531281 136.13407516 C206.40454877 139.15939277 206.40834012 142.18379132 206.40649414 145.20922852 C206.42087524 146.08964813 206.43525635 146.97006775 206.45007324 147.87716675 C206.37827551 158.823559 201.62578526 167.69359792 193.95239258 175.34057617 C185.86401374 181.52733938 177.22644145 184.54918383 167.11645508 184.93432617 C164.42701847 185.43920236 163.57010324 186.15716301 161.95239258 188.34057617 C161.5879413 189.66574188 161.25042502 190.99891096 160.95239258 192.34057617 C157.03628773 192.51484373 153.1211776 192.62141772 149.20239258 192.71557617 C148.0912207 192.76584961 146.98004883 192.81612305 145.83520508 192.86791992 C142.76345366 192.9234335 139.97147526 192.91711322 136.95239258 192.34057617 C134.31176758 189.37963867 134.31176758 189.37963867 132.95239258 186.34057617 C129.89365542 184.81120759 126.6836312 185.14924795 123.32495117 185.1159668 C122.53771667 185.10457672 121.75048218 185.09318665 120.93939209 185.08145142 C112.69568524 184.97072298 104.45108104 184.92335278 96.20678711 184.88061523 C92.29748518 184.85835899 88.38914075 184.81662087 84.48022461 184.75756836 C79.75750564 184.6863624 75.03568624 184.64976563 70.31245804 184.63749695 C68.51591678 184.62711455 66.71940173 184.60473337 64.92316818 184.56990051 C54.00330435 183.95320751 54.00330435 183.95320751 44.43286133 188.24121094 C43.24160524 189.58064027 42.08330858 190.94982422 40.95239258 192.34057617 C39.32550374 193.96355519 37.68597127 195.57391724 36.03686523 197.17431641 C34.2277383 198.9969642 32.42104196 200.82202695 30.61645508 202.64916992 C29.64656083 203.62602508 28.67628809 204.60250458 27.70565796 205.57862854 C23.61931325 209.68922253 19.53894932 213.80571809 15.46264648 217.92626953 C12.95485656 220.46076368 10.4422784 222.99042733 7.92664719 225.51713753 C6.97183428 226.4781644 6.01892386 227.4410853 5.0679512 228.4059124 C3.74701775 229.74595738 2.41944973 231.07945277 1.09155273 232.41259766 C0.33846832 233.1731395 -0.41461609 233.93368134 -1.19052124 234.7172699 C-3.04760742 236.34057617 -3.04760742 236.34057617 -5.04760742 236.34057617 C-5.04903244 235.77538773 -5.05045746 235.21019928 -5.05192566 234.62788391 C-5.07163096 228.73873529 -5.12592174 222.85062201 -5.20019531 216.96191406 C-5.2233748 214.76504955 -5.2377709 212.56807392 -5.24316406 210.37109375 C-5.25245369 207.21047726 -5.29344619 204.05160841 -5.34057617 200.89135742 C-5.33664352 199.91097 -5.33271088 198.93058258 -5.32865906 197.92048645 C-5.42864044 193.23484279 -5.51674761 191.03649689 -8.43066406 187.21655273 C-11.35889178 185.11742952 -12.74268882 184.77287892 -16.29760742 184.77807617 C-24.4341711 184.38384159 -30.51706466 181.09006182 -37.04760742 176.34057617 C-37.87260742 175.78370117 -38.69760742 175.22682617 -39.54760742 174.65307617 C-46.66367974 168.07070927 -51.07184465 159.38525523 -51.45547485 149.68930054 C-51.48528754 147.48906549 -51.49885482 145.28857174 -51.49926758 143.08813477 C-51.51094971 141.88050476 -51.52263184 140.67287476 -51.53466797 139.4286499 C-51.56239814 136.13482304 -51.57657037 132.84132998 -51.5823102 129.54740095 C-51.58668443 127.4821643 -51.59507407 125.41698261 -51.60480881 123.35176468 C-51.63849913 116.12551278 -51.6556827 108.89942327 -51.65844727 101.6730957 C-51.66147589 94.97224177 -51.70185743 88.2723144 -51.75959551 81.57172906 C-51.80762275 75.79131923 -51.82817959 70.01121254 -51.82823789 64.23060477 C-51.82877205 60.79035187 -51.83998302 57.351007 -51.8794136 53.91096115 C-52.16497539 24.18326407 -52.16497539 24.18326407 -40.61010742 11.27807617 C-39.45481359 10.26111021 -38.26706756 9.27963984 -37.04760742 8.34057617 C-36.14075195 7.63868164 -36.14075195 7.63868164 -35.21557617 6.92260742 C-24.59733983 -0.45176853 -12.38640684 -0.08191557 0 0 Z " fill="#FDD16B" transform="translate(177.047607421875,122.659423828125)"/>
<path d="M0 0 C66.33 0 132.66 0 201 0 C201.99 3.3 202.98 6.6 204 10 C207.40151886 16.21656896 212.09985324 20.92183002 219 23 C222.27711165 23.30988896 225.54191772 23.32790428 228.83203125 23.3359375 C230.25789803 23.3459227 230.25789803 23.3459227 231.71257019 23.35610962 C233.72055126 23.36621679 235.72856579 23.37092724 237.73657227 23.37060547 C240.79174878 23.37497035 243.84547024 23.41128779 246.90039062 23.44921875 C248.85676593 23.45508915 250.81314805 23.45905705 252.76953125 23.4609375 C254.12773735 23.48249405 254.12773735 23.48249405 255.51338196 23.50448608 C262.42288289 23.45528751 267.66101893 21.81419033 272.98828125 17.32421875 C277.44481601 11.81599437 279.59053967 7.04730165 281 0 C347.33 0 413.66 0 482 0 C482 19.51485149 482 19.51485149 476.421875 25.76953125 C470.53839659 31.2157241 464.6508156 33.38408925 456.67578125 33.265625 C455.30403369 33.26839335 453.93228808 33.2723337 452.56054688 33.27734375 C450.42704062 33.26896449 448.29502099 33.24967062 446.16186523 33.20947266 C444.08198867 33.1766137 442.00577499 33.18695407 439.92578125 33.203125 C438.69255127 33.18926758 437.45932129 33.17541016 436.1887207 33.16113281 C435.13644287 33.43795898 434.08416504 33.71478516 433 34 C431.68 36.31 430.36 38.62 429 41 C420.42 41 411.84 41 403 41 C402.01 39.02 401.02 37.04 400 35 C397.21408412 33.60704206 394.94483574 33.87383362 391.82603264 33.87250805 C390.8612607 33.8700423 390.8612607 33.8700423 389.87699842 33.86752674 C387.70100776 33.86318198 385.5250831 33.86599607 383.34909058 33.86869812 C381.78151653 33.86699716 380.21394293 33.86484803 378.64637005 33.86228687 C375.227316 33.85767821 371.80828008 33.85627126 368.3892231 33.85725212 C362.82694406 33.85884084 357.2646831 33.85365147 351.70240784 33.84762573 C343.62607707 33.83950248 335.54974947 33.83456534 327.47341537 33.83133507 C314.70956844 33.82584493 301.94574833 33.80895369 289.18191528 33.78999329 C284.81749539 33.78363608 280.45307543 33.7773277 276.08865547 33.77101612 C274.45242592 33.76864048 274.45242592 33.76864048 272.78314122 33.76621684 C260.35803358 33.74826974 247.93292403 33.73204885 235.5078125 33.71704102 C233.80352039 33.71497721 233.80352039 33.71497721 232.06479813 33.71287171 C213.65689701 33.69094681 195.24900277 33.68018714 176.8410909 33.67267027 C157.95167076 33.6646011 139.06230965 33.64131609 120.17292321 33.6047166 C108.51700222 33.58267956 96.86120255 33.57303065 85.20526178 33.57921693 C77.21622735 33.58238994 69.22729654 33.57107187 61.23829417 33.54832252 C56.62770857 33.53564619 52.01735382 33.52949515 47.40675926 33.54073906 C43.18482189 33.55090284 38.9633328 33.54266809 34.74144842 33.5198761 C33.21513791 33.5148794 31.68878719 33.51661435 30.16249619 33.52580877 C20.98279576 33.57675377 14.01389984 33.31509847 6.7578125 27.0703125 C6.21898437 26.42835938 5.68015625 25.78640625 5.125 25.125 C4.57070313 24.48820312 4.01640625 23.85140625 3.4453125 23.1953125 C-1.54483856 15.61567765 0 9.40423962 0 0 Z " fill="#8CE3F0" transform="translate(15,461)"/>
<path d="M0 0 C15.51 0 31.02 0 47 0 C47 12.87 47 25.74 47 39 C46.67 39 46.34 39 46 39 C46 26.46 46 13.92 46 1 C31.15 1 16.3 1 1 1 C1 69.97 1 138.94 1 210 C114.52 210 228.04 210 345 210 C345 140.7 345 71.4 345 0 C357.87 0 370.74 0 384 0 C384 69.63 384 139.26 384 211 C257.28 211 130.56 211 0 211 C0 141.37 0 71.74 0 0 Z " fill="#7B88A5" transform="translate(64,235)"/>
<path d="M0 0 C3.14814632 0.6133036 5.22974247 1.64793178 7.828125 3.51171875 C8.54613281 4.02283203 9.26414062 4.53394531 10.00390625 5.06054688 C10.74511719 5.59744141 11.48632812 6.13433594 12.25 6.6875 C12.97574219 7.20505859 13.70148438 7.72261719 14.44921875 8.25585938 C19.3534385 11.76574214 24.18959372 15.3628834 29 19 C28.39192336 22.12048395 27.39805546 24.14532995 25.515625 26.6953125 C24.7412207 27.75492188 24.7412207 27.75492188 23.95117188 28.8359375 C23.1090918 29.96902344 23.1090918 29.96902344 22.25 31.125 C21.05712803 32.75248424 19.86442431 34.38009181 18.671875 36.0078125 C18.06021484 36.83829102 17.44855469 37.66876953 16.81835938 38.52441406 C14.02144589 42.33224203 11.26150036 46.1664572 8.5 50 C7.41686905 51.50014615 6.33353504 53.0001457 5.25 54.5 C4.71375 55.2425 4.1775 55.985 3.625 56.75 C-11 77 -25.625 97.25 -40.25 117.5 C-40.78681396 118.24330566 -41.32362793 118.98661133 -41.87670898 119.75244141 C-42.95425052 121.24437213 -44.03188642 122.73623472 -45.10961914 124.22802734 C-47.90736583 128.1009184 -50.70319916 131.97517062 -53.49609375 135.8515625 C-54.36041016 137.05039062 -54.36041016 137.05039062 -55.2421875 138.2734375 C-56.33264902 139.78601316 -57.42253971 141.29900059 -58.51171875 142.8125 C-61.95275113 147.58382841 -65.45453148 152.30577763 -69 157 C-71.7980339 155.67004157 -74.30218138 154.18179488 -76.828125 152.390625 C-77.54613281 151.88273438 -78.26414062 151.37484375 -79.00390625 150.8515625 C-79.74511719 150.32304687 -80.48632812 149.79453125 -81.25 149.25 C-81.97574219 148.73695313 -82.70148438 148.22390625 -83.44921875 147.6953125 C-88.3611285 144.21057082 -93.19971667 140.63677525 -98 137 C-96.72757348 134.33851091 -95.34399338 131.92766173 -93.63671875 129.5234375 C-93.16886963 128.862229 -92.70102051 128.20102051 -92.21899414 127.51977539 C-91.46090454 126.45811157 -91.46090454 126.45811157 -90.6875 125.375 C-90.15697021 124.62790771 -89.62644043 123.88081543 -89.07983398 123.11108398 C-83.64146233 115.46643756 -78.14561582 107.8632096 -72.64111328 100.26611328 C-69.92351827 96.513552 -67.21205527 92.75656581 -64.5 89 C-63.41669638 87.49997854 -62.33336304 85.99997854 -61.25 84.5 C-60.71375 83.7575 -60.1775 83.015 -59.625 82.25 C-44.1875 60.875 -44.1875 60.875 -28.75 39.5 C-28.21318604 38.75669434 -27.67637207 38.01338867 -27.12329102 37.24755859 C-26.04574948 35.75562787 -24.96811358 34.26376528 -23.89038086 32.77197266 C-21.09263417 28.8990816 -18.29680084 25.02482938 -15.50390625 21.1484375 C-14.92769531 20.34921875 -14.35148437 19.55 -13.7578125 18.7265625 C-12.66735098 17.21398684 -11.57746029 15.70099941 -10.48828125 14.1875 C-7.04724887 9.41617159 -3.54546852 4.69422237 0 0 Z " fill="#F78E82" transform="translate(407,59)"/>
<path d="M0 0 C1.68106339 0.00022659 1.68106339 0.00022659 3.39608765 0.00045776 C5.18703354 0.01594162 5.18703354 0.01594162 7.01416016 0.03173828 C8.24864899 0.03456818 9.48313782 0.03739807 10.7550354 0.04031372 C14.68786415 0.05148556 18.62046303 0.07658514 22.55322266 0.10205078 C25.22379224 0.11321253 27.89435967 0.12120959 30.56494141 0.12939453 C37.10279005 0.15141517 43.64046741 0.18592487 50.17822266 0.22705078 C50.17822266 6.16705078 50.17822266 12.10705078 50.17822266 18.22705078 C48.46723389 18.2416333 46.75624512 18.25621582 44.9934082 18.27124023 C39.34143978 18.32287809 33.68973943 18.38816015 28.03802776 18.46276569 C24.61123186 18.50750106 21.18455571 18.54674966 17.75756836 18.57348633 C13.81809955 18.60446125 9.87913615 18.65925176 5.93994141 18.71533203 C4.70861984 18.72172195 3.47729828 18.72811188 2.20866394 18.73469543 C1.06770767 18.75448959 -0.0732486 18.77428375 -1.2487793 18.79467773 C-2.25471634 18.80578079 -3.26065338 18.81688385 -4.29707336 18.82832336 C-7.27859152 19.29919561 -7.97257316 19.90603721 -9.82177734 22.22705078 C-10.1224382 25.22474425 -10.23751052 28.0161892 -10.22050476 31.01579285 C-10.22715159 31.92490475 -10.23379841 32.83401664 -10.24064666 33.77067739 C-10.25935987 36.82940848 -10.25666578 39.88775125 -10.25415039 42.9465332 C-10.26316246 45.13414567 -10.2734883 47.32175307 -10.28503418 49.50935364 C-10.31269539 55.45941265 -10.32190107 61.4093761 -10.32788825 67.35949111 C-10.33724822 73.57354658 -10.36344961 79.78752999 -10.38789368 86.00154114 C-10.42665464 96.43501576 -10.45498028 106.86847601 -10.4753418 117.30200195 C-10.49634378 128.04910042 -10.52361201 138.79615281 -10.55932617 149.54321289 C-10.561525 150.20553774 -10.56372382 150.86786259 -10.56598928 151.55025788 C-10.57705873 154.87291015 -10.58825831 158.19556196 -10.59950578 161.51821363 C-10.69245122 189.08778689 -10.76408658 216.65738281 -10.82177734 244.22705078 C-16.10177734 244.22705078 -21.38177734 244.22705078 -26.82177734 244.22705078 C-26.8154126 242.76364258 -26.80904785 241.30023438 -26.80249023 239.79248047 C-26.78806513 234.36514126 -26.81935795 228.93886263 -26.86450195 223.51171875 C-26.87764528 221.16247157 -26.87837277 218.8131209 -26.86645508 216.46386719 C-26.85147536 213.08701157 -26.88107364 209.71304448 -26.91943359 206.33642578 C-26.90517838 205.28525574 -26.89092316 204.23408569 -26.87623596 203.15106201 C-26.895728 202.17034729 -26.91522003 201.18963257 -26.93530273 200.17919922 C-26.93752335 199.31760193 -26.93974396 198.45600464 -26.94203186 197.56829834 C-27.93249849 194.17602423 -27.93249849 194.17602423 -34.82177734 191.22705078 C-34.82177734 183.30705078 -34.82177734 175.38705078 -34.82177734 167.22705078 C-31.35677734 165.24705078 -31.35677734 165.24705078 -27.82177734 163.22705078 C-26.49660078 160.57669766 -26.70010604 158.5940774 -26.70393372 155.625 C-26.70281586 154.43347824 -26.701698 153.24195648 -26.70054626 152.014328 C-26.70421707 150.70007339 -26.70788788 149.38581879 -26.71166992 148.03173828 C-26.71191199 146.63881937 -26.71163505 145.24590029 -26.71087646 143.85298157 C-26.70976866 140.84805759 -26.71120716 137.84314887 -26.71424294 134.83822632 C-26.71787273 130.08018815 -26.70874067 125.32222966 -26.69645691 120.56420898 C-26.69443498 119.76109944 -26.69241305 118.9579899 -26.69032985 118.13054371 C-26.68616088 116.48786663 -26.68195812 114.84518964 -26.67772233 113.20251274 C-26.64959087 102.12421986 -26.62940869 91.04609816 -26.64672852 79.96777344 C-26.65831162 72.49781129 -26.6486175 65.02820598 -26.61467093 57.55830765 C-26.59756046 53.60740394 -26.59115834 49.65714379 -26.61078835 45.70623779 C-26.62911893 41.98274234 -26.61924914 38.26035095 -26.58853149 34.53694725 C-26.57920683 32.53262529 -26.59935619 30.5282326 -26.62065125 28.52400208 C-26.51802382 20.33591625 -25.10288719 14.61855195 -19.82177734 8.22705078 C-13.93356528 2.75262997 -8.17895679 -0.03700885 0 0 Z " fill="#BBEDF6" transform="translate(60.82177734375,201.77294921875)"/>
<path d="M0 0 C7.48523837 -0.13638773 14.97000338 -0.24610534 22.4561882 -0.31087303 C25.93366983 -0.34198329 29.41024624 -0.38407142 32.88720703 -0.45263672 C36.89884346 -0.53123674 40.90955241 -0.55958465 44.921875 -0.5859375 C46.15049255 -0.61690521 47.37911011 -0.64787292 48.6449585 -0.67977905 C57.25859965 -0.68308628 63.82857515 1.1073646 71 6 C73.40697744 8.495681 75.30133258 10.98150466 77 14 C77.34732174 14.617174 77.69464348 15.234348 78.05249012 15.87022424 C79.05646005 18.1269087 79.24882469 19.55543214 79.24609566 22.0060997 C79.25007775 22.7978279 79.25405985 23.5895561 79.25816262 24.40527606 C79.24942409 25.70099406 79.24942409 25.70099406 79.24050903 27.02288818 C79.24221788 27.94510516 79.24392673 28.86732214 79.24568737 29.81748509 C79.24898744 32.9145347 79.23796996 36.01136872 79.22705078 39.10839844 C79.22648678 41.32570897 79.22680301 43.54301988 79.22793579 45.7603302 C79.22851073 51.78679322 79.21673347 57.81317698 79.20278788 63.83962154 C79.19030414 70.13504067 79.18911188 76.43046152 79.18673706 82.72589111 C79.1812227 93.29465077 79.16872152 103.86338438 79.15087891 114.43212891 C79.13252024 125.31786961 79.11836367 136.20360241 79.10986328 147.08935547 C79.10933783 147.76037858 79.10881239 148.43140169 79.10827102 149.12275884 C79.10566094 152.48909228 79.10313352 155.85542578 79.10064721 159.22175932 C79.07972958 187.14785984 79.04454018 215.07392787 79 243 C74.38 243 69.76 243 65 243 C64.99945523 241.87594159 64.99891047 240.75188318 64.99834919 239.5937624 C64.98396312 212.26139042 64.94098529 184.92917788 64.86790943 157.59689808 C64.83323478 144.37927715 64.80790065 131.16176079 64.80444336 117.9440918 C64.80140692 106.42552842 64.78095948 94.90715113 64.73947543 83.38865966 C64.71811484 77.28788323 64.70556065 71.18737158 64.71384621 65.08655739 C64.72136679 59.34664446 64.70564423 53.6072689 64.67193985 47.86745453 C64.66368258 45.75873333 64.6639847 43.64995893 64.67340279 41.5412426 C64.6849778 38.66531048 64.66597805 35.79115325 64.63923645 32.9153595 C64.64990971 32.07780603 64.66058297 31.24025256 64.67157966 30.37731868 C64.59711204 26.09489197 64.36925465 24.4716159 61.63761902 20.98274231 C58.49692771 18.62183215 56.91188698 18.36560099 53.01635742 18.34057617 C51.83551071 18.32093307 50.654664 18.30128998 49.43803406 18.28105164 C47.54091423 18.28695061 47.54091423 18.28695061 45.60546875 18.29296875 C43.65173088 18.27028679 43.65173088 18.27028679 41.65852356 18.24714661 C38.20774671 18.20736179 34.75749768 18.19711058 31.30651855 18.19311523 C27.78035538 18.18377118 24.25450072 18.14634991 20.72851562 18.11132812 C13.8190116 18.04681924 6.90978468 18.01612146 0 18 C0 12.06 0 6.12 0 0 Z " fill="#C0F4FD" transform="translate(398,202)"/>
<path d="M0 0 C0.85086685 -0.00700928 1.7017337 -0.01401855 2.5783844 -0.02124023 C5.38990965 -0.03883937 8.20042747 -0.02718979 11.01196289 -0.01367188 C12.96725152 -0.01636649 14.92253884 -0.02024866 16.87782288 -0.02526855 C20.97597002 -0.03116641 25.0737684 -0.02259227 29.171875 -0.00390625 C34.42232796 0.01886832 39.67196238 0.00577142 44.92238522 -0.01819611 C48.9604762 -0.03265914 52.99837356 -0.02804549 57.03647041 -0.01768494 C58.97214416 -0.01501827 60.90783554 -0.01828529 62.84348869 -0.02760315 C65.55107962 -0.03777534 68.25735097 -0.02225797 70.96484375 0 C71.76344818 -0.00809692 72.56205261 -0.01619385 73.38485718 -0.02453613 C77.09202828 0.03185244 79.34908462 0.39790905 82.5483551 2.33117676 C84.54711914 4.51757812 84.54711914 4.51757812 85.10961914 8.01757812 C84.44471964 12.15473056 83.90085357 13.08452806 80.54711914 15.51757812 C77.56990095 15.91211951 74.96302683 16.06485265 71.98657227 16.03515625 C71.12434555 16.04216553 70.26211884 16.0491748 69.37376404 16.05639648 C66.52497101 16.07399501 63.67717219 16.06234725 60.82836914 16.04882812 C58.84826466 16.05152251 56.86816147 16.05540448 54.88806152 16.0604248 C50.73864136 16.06632237 46.58956567 16.0577485 42.44018555 16.0390625 C37.12013581 16.0162729 31.80089322 16.02939458 26.48087311 16.05335236 C22.39221103 16.06780329 18.30374046 16.06320756 14.21507263 16.05284119 C12.2534526 16.05017196 10.29181521 16.05345054 8.33021545 16.0627594 C5.58889684 16.07291335 2.84888708 16.05744039 0.10766602 16.03515625 C-1.10965965 16.04730164 -1.10965965 16.04730164 -2.35157776 16.05969238 C-5.90820958 16.00610235 -8.03797883 15.81810952 -10.95666504 13.70397949 C-13.15470458 10.49201194 -12.99538739 8.31512381 -12.45288086 4.51757812 C-9.18498153 -0.23638149 -5.33061493 -0.05390962 0 0 Z " fill="#030301" transform="translate(181.452880859375,233.482421875)"/>
<path d="M0 0 C0.85086685 -0.00700928 1.7017337 -0.01401855 2.5783844 -0.02124023 C5.38990965 -0.03883937 8.20042747 -0.02718979 11.01196289 -0.01367188 C12.96725152 -0.01636649 14.92253884 -0.02024866 16.87782288 -0.02526855 C20.97597002 -0.03116641 25.0737684 -0.02259227 29.171875 -0.00390625 C34.42232796 0.01886832 39.67196238 0.00577142 44.92238522 -0.01819611 C48.9604762 -0.03265914 52.99837356 -0.02804549 57.03647041 -0.01768494 C58.97214416 -0.01501827 60.90783554 -0.01828529 62.84348869 -0.02760315 C65.55107962 -0.03777534 68.25735097 -0.02225797 70.96484375 0 C71.76344818 -0.00809692 72.56205261 -0.01619385 73.38485718 -0.02453613 C77.09202828 0.03185244 79.34908462 0.39790905 82.5483551 2.33117676 C84.54711914 4.51757812 84.54711914 4.51757812 85.10961914 8.01757812 C84.44471964 12.15473056 83.90085357 13.08452806 80.54711914 15.51757812 C77.56990095 15.91211951 74.96302683 16.06485265 71.98657227 16.03515625 C71.12434555 16.04216553 70.26211884 16.0491748 69.37376404 16.05639648 C66.52497101 16.07399501 63.67717219 16.06234725 60.82836914 16.04882812 C58.84826466 16.05152251 56.86816147 16.05540448 54.88806152 16.0604248 C50.73864136 16.06632237 46.58956567 16.0577485 42.44018555 16.0390625 C37.12013581 16.0162729 31.80089322 16.02939458 26.48087311 16.05335236 C22.39221103 16.06780329 18.30374046 16.06320756 14.21507263 16.05284119 C12.2534526 16.05017196 10.29181521 16.05345054 8.33021545 16.0627594 C5.58889684 16.07291335 2.84888708 16.05744039 0.10766602 16.03515625 C-1.10965965 16.04730164 -1.10965965 16.04730164 -2.35157776 16.05969238 C-5.90820958 16.00610235 -8.03797883 15.81810952 -10.95666504 13.70397949 C-13.15470458 10.49201194 -12.99538739 8.31512381 -12.45288086 4.51757812 C-9.18498153 -0.23638149 -5.33061493 -0.05390962 0 0 Z " fill="#040302" transform="translate(181.452880859375,180.482421875)"/>
<path d="M0 0 C4.2845507 2.4220657 7.75747694 4.9279216 9.9375 9.4375 C11.36808801 16.33530334 10.72055283 21.99321961 7 28 C5.67424118 29.83338134 4.31782333 31.64483965 2.9375 33.4375 C2.14606499 34.540341 1.35842197 35.64591124 0.57421875 36.75390625 C-5.54208097 45.26402699 -5.54208097 45.26402699 -9.0625 46.4375 C-10.91259766 45.46875 -10.91259766 45.46875 -12.9765625 43.9375 C-13.73404785 43.38280029 -14.4915332 42.82810059 -15.27197266 42.2565918 C-16.06909668 41.6562915 -16.8662207 41.05599121 -17.6875 40.4375 C-18.49622559 39.84042236 -19.30495117 39.24334473 -20.13818359 38.62817383 C-25.50943104 34.6486907 -30.85251975 30.6268116 -36.0625 26.4375 C-32.41349502 20.47706743 -28.60554397 14.65730042 -24.5 9 C-23.79746094 8.03191406 -23.09492188 7.06382813 -22.37109375 6.06640625 C-16.33295617 -0.80951015 -8.67012032 -3.88660566 0 0 Z " fill="#FB6AB2" transform="translate(453.0625,19.5625)"/>
<path d="M0 0 C11.22 0 22.44 0 34 0 C34 19.51485149 34 19.51485149 28.421875 25.76953125 C20.17634366 33.40221905 12.397043 33.40079994 1.5625 33.1875 C0.25861328 33.17396484 -1.04527344 33.16042969 -2.38867188 33.14648438 C-5.59287622 33.11127334 -8.79622105 33.06202094 -12 33 C-10.81712402 32.08480591 -10.81712402 32.08480591 -9.61035156 31.15112305 C-3.93420359 26.47355666 -1.14145314 19.66370744 -0.3984375 12.43359375 C-0.07561697 8.27905449 -0.06748275 4.18393024 0 0 Z " fill="#70CFF8" transform="translate(463,461)"/>
<path d="M0 0 C16.5 0 33 0 50 0 C48 6 48 6 46.40795898 7.84790039 C42.84101252 9.55452316 39.34738243 9.44790395 35.47265625 9.43359375 C34.6467247 9.4388356 33.82079315 9.44407745 32.96983337 9.44947815 C31.22574994 9.45589177 29.48162322 9.45456986 27.73754883 9.44604492 C25.07489637 9.4375396 22.41439346 9.46629548 19.75195312 9.49804688 C18.05468814 9.49965921 16.35741937 9.49908074 14.66015625 9.49609375 C13.86730728 9.50732773 13.07445831 9.51856171 12.25758362 9.53013611 C8.4429865 9.48226381 6.39263689 9.22652004 3.02124023 7.28149414 C1 5 1 5 0 0 Z " fill="#C0F4FD" transform="translate(231,461)"/>
<path d="M0 0 C5.625 2.25 5.625 2.25 8.33203125 4.3828125 C8.90244141 4.82753906 9.47285156 5.27226562 10.06054688 5.73046875 C10.63869141 6.19066406 11.21683594 6.65085938 11.8125 7.125 C12.40998047 7.59292969 13.00746094 8.06085938 13.62304688 8.54296875 C15.08616792 9.69005565 16.54366297 10.84431234 18 12 C14.60001815 14.26665457 11.16046109 15.3886974 7.3125 16.625 C4.899375 17.40875 2.48625 18.1925 0 19 C0 12.73 0 6.46 0 0 Z " fill="#F38E65" transform="translate(305,212)"/>
<path d="M0 0 C-0.33 0.99 -0.66 1.98 -1 3 C-9.58 3 -18.16 3 -27 3 C-27 2.67 -27 2.34 -27 2 C-26.38479492 1.97494385 -25.76958984 1.9498877 -25.13574219 1.92407227 C-22.34029844 1.80781513 -19.54516702 1.68522358 -16.75 1.5625 C-15.78191406 1.52318359 -14.81382812 1.48386719 -13.81640625 1.44335938 C-12.88183594 1.40146484 -11.94726562 1.35957031 -10.984375 1.31640625 C-10.12553711 1.27974854 -9.26669922 1.24309082 -8.38183594 1.20532227 C-5.51413766 0.95811703 -2.86692169 0 0 0 Z " fill="#7FDAF1" transform="translate(445,499)"/>
</svg>
